<svg xmlns="http://www.w3.org/2000/svg" xmlns:xlink="http://www.w3.org/1999/xlink" width="16" height="16" fill="#80CBC4" version="1.1" viewBox="0 0 24 24"><g transform="scale(1.5)"><rect width="1" height="12" x="1" y="2"/><rect width="2" height="1" x="2" y="2"/><rect width="2" height="1" x="2" y="13"/><rect width="1" height="12" x="14" y="2"/><rect width="3" height="1" x="12" y="2"/><rect width="2" height="1" x="12" y="13"/></g><path d="M5.5,7A1.5,1.5 0 0,1 4,5.5A1.5,1.5 0 0,1 5.5,4A1.5,1.5 0 0,1 7,5.5A1.5,1.5 0 0,1 5.5,7M21.41,11.58L12.41,2.58C12.05,2.22 11.55,2 11,2H4C2.89,2 2,2.89 2,4V11C2,11.55 2.22,12.05 2.59,12.41L11.58,21.41C11.95,21.77 12.45,22 13,22C13.55,22 14.05,21.77 14.41,21.41L21.41,14.41C21.78,14.05 22,13.55 22,13C22,12.44 21.77,11.94 21.41,11.58Z" transform="scale(0.75) translate(4 4)"/></svg>