<svg xmlns="http://www.w3.org/2000/svg" xmlns:xlink="http://www.w3.org/1999/xlink" width="16" height="16" fill="#A1887F" version="1.1" viewBox="0 0 24 24"><g transform="scale(1.5)"><rect width="1" height="12" x="1" y="2"/><rect width="2" height="1" x="2" y="2"/><rect width="2" height="1" x="2" y="13"/><rect width="1" height="12" x="14" y="2"/><rect width="3" height="1" x="12" y="2"/><rect width="2" height="1" x="12" y="13"/></g><path d="M13,9H18.5L13,3.5V9M6,2H14L20,8V20A2,2 0 0,1 18,22H6C4.89,22 4,21.1 4,20V4C4,2.89 4.89,2 6,2M15,18V16H6V18H15M18,14V12H6V14H18Z" transform="scale(0.75) translate(4 4)"/></svg>