<svg xmlns="http://www.w3.org/2000/svg" width="16" height="16" fill="#FFCB6B" viewBox="0 0 24 24"><g transform="scale(1.5)"><rect width="1" height="12" x="1" y="2"/><rect width="2" height="1" x="2" y="2"/><rect width="2" height="1" x="2" y="13"/><rect width="1" height="12" x="14" y="2"/><rect width="3" height="1" x="12" y="2"/><rect width="2" height="1" x="12" y="13"/></g><g transform="scale(0.75) translate(4 4)"><path id="svg_1" d="m20,18l-16,0l0,-10l16,0m0,-2l-8,0l-2,-2l-6,0c-1.11,0 -2,0.89 -2,2l0,12a2,2 0 0 0 2,2l16,0a2,2 0 0 0 2,-2l0,-10c0,-1.11 -0.9,-2 -2,-2z"/><ellipse id="svg_5" cx="7.688" cy="13.086" fill="#80CBC4" stroke="#0f0f00" stroke-width="0" rx="2.4" ry="2.4"/></g></svg>