<svg xmlns="http://www.w3.org/2000/svg" width="16" height="16" fill-rule="evenodd" stroke-linejoin="round" stroke-miterlimit="1.414" clip-rule="evenodd" viewBox="0 0 24 24"><defs xmlns="http://www.w3.org/2000/svg"><linearGradient id="a" x1="0%" x2="99.799%" y1="50%" y2="50%"><stop offset="26%" stop-color="#F97A12"/><stop offset="46%" stop-color="#B07B58"/><stop offset="72%" stop-color="#577BAE"/><stop offset="91%" stop-color="#1E7CE5"/><stop offset="100%" stop-color="#087CFA"/></linearGradient><linearGradient id="b" x1=".345%" x2="121.182%" y1="34.54%" y2="77.619%"><stop offset="0%" stop-color="#F97A12"/><stop offset="7%" stop-color="#CB7A3E"/><stop offset="15%" stop-color="#9E7B6A"/><stop offset="24%" stop-color="#757B91"/><stop offset="33%" stop-color="#537BB1"/><stop offset="43%" stop-color="#387CCC"/><stop offset="54%" stop-color="#237CE0"/><stop offset="66%" stop-color="#147CEF"/><stop offset="79%" stop-color="#0B7CF7"/><stop offset="100%" stop-color="#087CFA"/></linearGradient><linearGradient id="c" x1="78.169%" x2="30.106%" y1="97.749%" y2="-6.624%"><stop offset="0%" stop-color="#FE315D"/><stop offset="8%" stop-color="#CB417E"/><stop offset="16%" stop-color="#9E4E9B"/><stop offset="25%" stop-color="#755BB4"/><stop offset="34%" stop-color="#5365CA"/><stop offset="44%" stop-color="#386DDB"/><stop offset="54%" stop-color="#2374E9"/><stop offset="66%" stop-color="#1478F3"/><stop offset="79%" stop-color="#0B7BF8"/><stop offset="100%" stop-color="#087CFA"/></linearGradient><linearGradient id="d" x1="20%" x2="103.422%" y1="24.087%" y2="132.676%"><stop offset="0%" stop-color="#FE315D"/><stop offset="4%" stop-color="#F63462"/><stop offset="10%" stop-color="#DF3A71"/><stop offset="17%" stop-color="#C24383"/><stop offset="29%" stop-color="#AD4A91"/><stop offset="55%" stop-color="#755BB4"/><stop offset="92%" stop-color="#1D76ED"/><stop offset="100%" stop-color="#087CFA"/></linearGradient></defs><path fill="#00BCD4" d="M20,18H4V8H20M20,6H12L10,4H4C2.89,4 2,4.89 2,6V18A2,2 0 0,0 4,20H20A2,2 0 0,0 22,18V8C22,6.89 21.1,6 20,6Z"/><g xmlns="http://www.w3.org/2000/svg" fill="none"><path fill="url(#a)" d="M16.2 49.9L.7 37.7l7.7-14.3L30.5 32z" transform="matrix(.2 0 0 .2 10.4 9)"/><path fill="url(#b)" d="M64 17.1l-1.2 37L38.2 64l-14.8-9.6L45 32l-9.4-20.8L44.1 1z" transform="matrix(.2 0 0 .2 10.4 9)"/><path fill="url(#c)" d="M64 17.1l-19.5 23-8.9-28.9L44.1 1z" transform="matrix(.2 0 0 .2 10.4 9)"/><path fill="url(#d)" d="M30.8 53.1L5.2 62.4 9.3 48l5.3-17.8L0 25.3 9.3 0l20 2.4L49.1 25z" transform="matrix(.2 0 0 .2 10.4 9)"/><path fill="#000" d="M12.8 11.4h8v8h-8z"/><g fill="#FFF"><path d="M13.56 17.9h3v.5h-3zM15.7 13.04v-.6h-1.64v.6h.46v2.1h-.46v.62h1.64v-.62h-.46v-2.1zM17.3 15.8a1.342 1.342 0 0 1-.66-.14 1.574 1.574 0 0 1-.44-.36l.46-.52c.083.091.177.172.28.24a.586.586 0 0 0 .32.08.372.372 0 0 0 .32-.14.586.586 0 0 0 .12-.42V12.4h.74v2.16c.008.177-.02.354-.08.52a1 1 0 0 1-.28.44 1.43 1.43 0 0 1-.78.28"/></g></g></svg>