<svg xmlns="http://www.w3.org/2000/svg" width="16" height="16" fill-rule="evenodd" stroke-linejoin="round" stroke-miterlimit="1.414" clip-rule="evenodd" version="1.1" viewBox="0 0 24 24" xml:space="preserve"><path fill="#0277bd" d="M20,18H4V8H20M20,6H12L10,4H4C2.89,4 2,4.89 2,6V18A2,2 0 0,0 4,20H20A2,2 0 0,0 22,18V8C22,6.89 21.1,6 20,6Z"/><g><path fill="#b3e5fc" d="m16.275 21.115-2.538 2e-3v-3.807l-1.903 2.441-1.903-2.441v3.807h-2.538v-7.613h2.538l1.903 2.538 1.903-2.538 2.538-3e-3z"/><path fill="#b3e5fc" d="m20.064 21.749-3.154-4.439h1.903v-3.806h2.538v3.806h1.903z"/></g></svg>