<svg xmlns="http://www.w3.org/2000/svg" width="16" height="16" fill-rule="evenodd" stroke-linejoin="round" stroke-miterlimit="1.414" clip-rule="evenodd" version="1.1" viewBox="0 0 24 24" xml:space="preserve"><path fill="#D14748" d="M20,18H4V8H20M20,6H12L10,4H4C2.89,4 2,4.89 2,6V18A2,2 0 0,0 4,20H20A2,2 0 0,0 22,18V8C22,6.89 21.1,6 20,6Z"/><g transform="translate(8 8)"><path id="file_type_ruby.svg" fill="#FFCDD2" d="M13,6L8,11V4h3Zm3,0L8,14,0,6,4,2h8ZM8,12.5L14.5,6l-3-3h-7l-3,3Z" class="i-color"/></g></svg>