<svg xmlns="http://www.w3.org/2000/svg" width="16" height="16" fill-rule="evenodd" stroke-linejoin="round" stroke-miterlimit="1.414" clip-rule="evenodd" version="1.1" viewBox="0 0 24 24" xml:space="preserve"><path fill="#FF8F00" d="M20,18H4V8H20M20,6H12L10,4H4C2.89,4 2,4.89 2,6V18A2,2 0 0,0 4,20H20A2,2 0 0,0 22,18V8C22,6.89 21.1,6 20,6Z"/><path d="m13.424 8.5427h9.3703a.58564 .58564 0 0 1 .58564 .58564v2.3426a.58564 .58564 0 0 1 -.58564 .58564h-9.3703a.58564 .58564 0 0 1 -.58564 -.58564v-2.3426a.58564 .58564 0 0 1 .58564 -.58564m0 4.6852h9.3703a.58564 .58564 0 0 1 .58564 .58564v2.3426a.58564 .58564 0 0 1 -.58564 .58564h-9.3703a.58564 .58564 0 0 1 -.58564 -.58564v-2.3426a.58564 .58564 0 0 1 .58564 -.58564m0 4.6852h9.3703a.58564 .58564 0 0 1 .58564 .58565v2.3426a.58564 .58564 0 0 1 -.58564 .58564h-9.3703a.58564 .58564 0 0 1 -.58564 -.58564v-2.3426a.58564 .58564 0 0 1 .58564 -.58565m2.9282-7.0277h.58564v-1.1713h-.58564v1.1713m0 4.6852h.58564v-1.1713h-.58564v1.1713m0 4.6852h.58564v-1.1713h-.58564v1.1713m-2.3426-10.542v1.1713h1.1713v-1.1713h-1.1713m0 4.6852v1.1713h1.1713v-1.1713h-1.1713m0 4.6852v1.1713h1.1713v-1.1713z" style="fill:#ffecb3;stroke-width:.58564"/></svg>