<svg xmlns="http://www.w3.org/2000/svg" xmlns:xlink="http://www.w3.org/1999/xlink" id="Layer_1" width="16" height="16" data-name="Layer 1" viewBox="0 0 120.801 130.898"><defs><radialGradient id="radial-gradient" cx="113.692" cy="68.825" r="98.86" gradientUnits="userSpaceOnUse"><stop offset=".045" stop-color="#f4793b"/><stop offset="1" stop-color="#fff33e"/></radialGradient><radialGradient id="radial-gradient-2" cx="9.363" cy="41.049" r="49.677" gradientUnits="userSpaceOnUse"><stop offset=".258" stop-color="#ee3d85"/><stop offset="1" stop-color="#7b5aa6"/></radialGradient><linearGradient id="linear-gradient" x1="11.424" x2="39.916" y1="37.792" y2="13.745" gradientUnits="userSpaceOnUse"><stop offset="0" stop-color="#ee3d85"/><stop offset="1" stop-color="#f05872"/></linearGradient><radialGradient id="radial-gradient-3" cx="50.068" cy="9.716" r="88.22" gradientUnits="userSpaceOnUse"><stop offset=".134" stop-color="#f05872"/><stop offset="1" stop-color="#f4793b"/></radialGradient></defs><title>logo-4</title><g><g><path fill="url(#radial-gradient)" d="M118.69638,72.62406a4.67136,4.67136,0,0,0-4.74706-8.02629L27.70209,111.88852a10.19806,10.19806,0,1,0,11.16121,17.038Z" opacity=".997"/><path fill="url(#radial-gradient-2)" d="M18.27209,29.0161A11.24043,11.24043,0,1,0,6.77615,48.10142l46.204,19.08234a4.32591,4.32591,0,0,0,4.60033-7.21184Z"/><path fill="url(#linear-gradient)" d="M52.2019,0.40458a8.86652,8.86652,0,0,0-7.40664.98355L4.699,28.59941A11.24106,11.24106,0,1,0,18.60258,46.23878L55.15529,15.79451A8.888,8.888,0,0,0,52.2019.40458Z" opacity=".999"/><path fill="url(#radial-gradient-3)" d="M55.81058,2.57282A8.88722,8.88722,0,1,0,43.66406,15.54018l69.6015,56.90322a4.66421,4.66421,0,0,0,6.36265-6.76831Z" opacity=".997"/></g><rect width="51.253" height="51.253" x="36.905" y="36.212"/><rect width="19.22" height="3.203" x="41.326" y="77.855" fill="#fff"/><g><path fill="#fff" d="M44.0459,51.115a3.14761,3.14761,0,0,0,2.29126-.84729,3.10351,3.10351,0,0,0,.82343-2.351V42.61814H44.85742v5.28668a0.97359,0.97359,0,0,1-.94281,1.16943,1.6911,1.6911,0,0,1-1.31274-.77563l-1.49164,1.4082A3.41138,3.41138,0,0,0,44.0459,51.115Z"/><polygon fill="#fff" points="54.476 49.003 49.989 49.003 49.989 47.678 53.998 47.678 53.998 45.852 49.989 45.852 49.989 44.575 54.416 44.575 54.416 42.618 47.697 42.618 47.697 50.972 54.476 50.972 54.476 49.003"/><polygon fill="#fff" points="57.443 50.972 59.758 50.972 59.758 44.647 62.264 44.647 62.264 42.618 54.948 42.618 54.948 44.647 57.443 44.647 57.443 50.972"/><path fill="#fff" d="M47.13666,56.91013a1.93348,1.93348,0,0,0,1.28888-1.86163V55.02463a1.88011,1.88011,0,0,0-.537-1.36047,3.12872,3.12872,0,0,0-2.27942-.73993H41.325v8.35364h4.308c1.99292,0,3.16241-.87115,3.16241-2.30316V58.95078A2.02716,2.02716,0,0,0,47.13666,56.91013Zm-3.55621-2.12421h1.51563c0.68024,0,1.05011.25061,1.05011,0.71606v0.0238c0,0.48932-.40576.728-1.1098,0.728H43.58044V54.78592Zm2.8999,3.86652c0,0.48926-.39386.76373-1.1098,0.76373h-1.7901V57.87674h1.76624c0.7757,0,1.13367.2984,1.13367,0.75183v0.02386Z"/><path fill="#fff" d="M59.26086,52.8646l-3.12134,7.40924L54.8338,58.36606a2.6467,2.6467,0,0,0,1.71838-2.5777V55.7645a2.60811,2.60811,0,0,0-.73987-1.94519,3.69812,3.69812,0,0,0-2.72083-.89508H49.14136v8.35364h2.31512V58.748h1.02637l1.68262,2.52991H58.1391l0.59674-1.5036h3.234l0.59668,1.5036h2.4823L61.49249,52.8646H59.26086Zm-5.0238,3.07892a1.04924,1.04924,0,0,1-1.24115.99048H51.45648V54.91721H52.984a1.04265,1.04265,0,0,1,1.25305,1.00244v0.02386Zm5.179,2.02875,0.94275-2.36292,0.93085,2.36292H59.416Z"/><rect width="2.315" height="8.354" x="65.323" y="52.924" fill="#fff"/><polygon fill="#fff" points="73.808 57.34 70.371 52.924 68.211 52.924 68.211 61.278 70.502 61.278 70.502 56.695 74.082 61.278 76.099 61.278 76.099 52.924 73.808 52.924 73.808 57.34"/><path fill="#fff" d="M80.43274,56.0748c-1.16949-.26251-1.45593-0.42963-1.45593-0.81152V55.23942c0-.3103.27454-0.537,0.83539-0.537a4.10069,4.10069,0,0,1,2.33905.82336l1.15753-1.63489A5.25781,5.25781,0,0,0,79.87189,52.781c-2.00488,0-3.23407,1.12183-3.23407,2.67316v0.02393c0,1.70648,1.37238,2.20776,3.15057,2.61346,1.14557,0.27448,1.42.45349,1.42,0.81152v0.0238c0,0.35809-.33417.57288-0.96661,0.57288a4.32765,4.32765,0,0,1-2.709-1.00244L76.244,60.03678a5.857,5.857,0,0,0,3.91425,1.38434c2.02875,0,3.37732-1.01434,3.37732-2.72089V58.67637C83.53558,57.113,82.3421,56.49247,80.43274,56.0748Z"/></g></g></svg>