<svg xmlns="http://www.w3.org/2000/svg" width="16" height="16" fill-rule="evenodd" stroke-linejoin="round" stroke-miterlimit="1.414" clip-rule="evenodd" version="1.1" viewBox="0 0 24 24" xml:space="preserve"><path id="svg_1" fill="#C792EA" d="m20,18l-16,0l0,-10l16,0m0,-2l-8,0l-2,-2l-6,0c-1.11,0 -2,0.89 -2,2l0,12a2,2 0 0 0 2,2l16,0a2,2 0 0 0 2,-2l0,-10c0,-1.11 -0.9,-2 -2,-2z"/><path fill="#80CBC4" stroke-width=".668" d="m11.185 9.6129h5.3457v2.9001l3.7821-3.7754 3.7754 3.7754-3.7754 3.7821h2.9v5.3457h-5.3457v-5.3457h2.4457l-3.7821-3.7821v2.4457h-5.3457v-5.3457m0 6.6821h5.3457v5.3457h-5.3457z"/></svg>