<svg xmlns="http://www.w3.org/2000/svg" width="13" height="13" viewBox="-65 -240 300 300"><title>Kubernetes logo</title><path fill="#FFF" d="M85.304-204.478l93.973 44.872 23.22 100.85-65.02 80.882-104.298.01-65.037-80.868 23.197-100.853z"/><path fill="none" d="M85.304-204.478l93.973 44.872 23.22 100.85-65.02 80.881-104.298.011-65.037-80.868 23.197-100.853z"/><path fill="#326CE5" d="M84.433-215.362a17.14 17.14 0 0 0-6.524 1.651L-11.1-171.182c-4.589 2.191-8.077 6.528-9.21 11.451l-21.958 95.533c-1.012 4.388-.158 9.168 2.31 12.944.301.462.622.911.968 1.343l61.61 76.603c3.175 3.947 8.214 6.354 13.306 6.352l98.801-.023c5.089.004 10.128-2.398 13.307-6.341l61.586-76.613c3.178-3.949 4.424-9.359 3.29-14.287l-21.994-95.532c-1.133-4.925-4.621-9.261-9.208-11.453l-89.021-42.506a17.214 17.214 0 0 0-8.254-1.651z"/><path fill="#FFF" d="M85.142-61.364a4.667 4.667 0 0 1 2.199.468 4.656 4.656 0 0 1 2.106 2.003h.101l13.559 24.498a56.57 56.57 0 0 1-5.42 1.514c-10.368 2.355-20.704 1.642-30.064-1.547l13.524-24.454h.023a4.704 4.704 0 0 1 3.972-2.482zM61.909-72.645a4.697 4.697 0 0 1 4.507 3.653 4.65 4.65 0 0 1-.261 2.892l.08.102L55.58-40.247c-9.963-6.393-17.898-15.964-22.142-27.707l27.502-4.667.046.057a4.61 4.61 0 0 1 .923-.081zm46.593-.114c.365-.02.728.014 1.081.08l.046-.057 27.743 4.689c-4.061 11.407-11.831 21.29-22.211 27.903l-10.768-26.012.034-.046a4.701 4.701 0 0 1 2.277-6.09 4.652 4.652 0 0 1 1.798-.467zm-27.479-22.79h8.572l5.327 6.66-1.912 8.31-7.697 3.7-7.718-3.71-1.912-8.31 5.34-6.65zm51.238-20.15a55.569 55.569 0 0 1 6.864 16.768 55.43 55.43 0 0 1 1.162 17.862l-26.956-7.764-.023-.114a4.699 4.699 0 0 1-3.335-5.578 4.659 4.659 0 0 1 1.49-2.494l-.01-.057 20.808-18.623zm-94.041-.01l20.923 18.714-.023.114a4.69 4.69 0 0 1 .592 6.466 4.715 4.715 0 0 1-2.437 1.606l-.023.091-26.819 7.741a54.855 54.855 0 0 1 7.787-34.732zm53.776-25.82c12.122 1.492 23.331 6.98 31.921 15.391l-22.768 16.142-.08-.034a4.7 4.7 0 0 1-6.442-.864 4.652 4.652 0 0 1-1.025-2.722l-.023-.01-1.583-27.903zm-13.353 0l-1.583 27.947-.114.057a4.695 4.695 0 0 1-4.688 4.497 4.675 4.675 0 0 1-2.768-.898l-.044.023-22.916-16.246c7.042-6.926 16.051-12.044 26.431-14.401 1.898-.43 3.793-.75 5.682-.979zm6.67-41.323c-2.942.002-5.327 2.652-5.327 5.92 0 .051.011.099.013.149-.005.443-.027.978-.013 1.366.071 1.885.482 3.328.729 5.066.448 3.717.823 6.8.592 9.664-.226 1.081-1.021 2.069-1.731 2.755l-.127 2.254a69.515 69.515 0 0 0-9.63 1.48 68.533 68.533 0 0 0-34.811 19.888 90.731 90.731 0 0 1-1.925-1.366c-.952.128-1.912.422-3.164-.308-2.383-1.604-4.555-3.82-7.182-6.489-1.204-1.275-2.076-2.492-3.508-3.723-.324-.28-.82-.657-1.183-.945-1.119-.891-2.437-1.355-3.712-1.4-1.636-.057-3.214.584-4.246 1.878-1.834 2.3-1.247 5.817 1.309 7.855.027.021.053.037.08.057.351.285.781.649 1.105.887 1.517 1.121 2.905 1.695 4.416 2.585 3.186 1.968 5.827 3.6 7.922 5.568.818.872.963 2.408 1.071 3.074l1.708 1.524c-9.141 13.757-13.372 30.749-10.872 48.063l-2.23.649c-.589.76-1.42 1.955-2.29 2.31-2.741.863-5.825 1.181-9.55 1.571-1.75.146-3.259.059-5.112.411-.408.076-.977.224-1.423.329l-.046.013c-.023.005-.055.016-.078.021-3.141.76-5.159 3.646-4.509 6.489.649 2.846 3.718 4.575 6.877 3.893.023-.005.055-.005.08-.01.036-.009.066-.025.101-.034.441-.098.993-.204 1.379-.308 1.821-.489 3.141-1.206 4.781-1.834 3.524-1.263 6.444-2.32 9.288-2.732 1.188-.092 2.44.734 3.063 1.081l2.321-.398c5.345 16.568 16.544 29.961 30.726 38.363l-.968 2.323c.348.902.733 2.122.473 3.013-1.034 2.681-2.805 5.511-4.822 8.666-.977 1.458-1.976 2.59-2.856 4.258-.212.398-.48 1.012-.683 1.434-1.37 2.931-.367 6.305 2.264 7.57 2.647 1.275 5.932-.07 7.355-3.004.001-.005.009-.007.01-.012.002-.002-.002-.007 0-.011.203-.416.489-.964.66-1.355.756-1.729 1.007-3.211 1.537-4.883 1.411-3.541 2.184-7.257 4.125-9.571.532-.633 1.398-.878 2.296-1.119l1.206-2.186c12.364 4.746 26.202 6.019 40.027 2.881a69.517 69.517 0 0 0 9.141-2.755c.338.601.969 1.757 1.138 2.049.913.297 1.908.45 2.719 1.651 1.453 2.479 2.446 5.415 3.656 8.96.53 1.672.793 3.154 1.547 4.882.173.395.457.95.66 1.366 1.42 2.946 4.716 4.294 7.366 3.017 2.631-1.266 3.636-4.64 2.266-7.57-.204-.421-.484-1.035-.696-1.433-.88-1.668-1.88-2.789-2.856-4.246-2.017-3.156-3.691-5.778-4.724-8.46-.432-1.382.073-2.243.409-3.141-.201-.231-.633-1.537-.887-2.152 14.738-8.702 25.608-22.594 30.713-38.636.69.108 1.889.32 2.277.398.802-.528 1.539-1.219 2.983-1.105 2.844.411 5.765 1.468 9.291 2.732 1.638.628 2.958 1.357 4.781 1.845.384.103.935.199 1.377.295.036.009.067.027.103.034.023.005.057.007.078.012 3.159.679 6.227-1.05 6.877-3.894.649-2.844-1.368-5.731-4.507-6.489-.457-.103-1.105-.281-1.55-.365-1.853-.35-3.362-.263-5.11-.409-3.725-.391-6.811-.708-9.552-1.571-1.117-.434-1.912-1.764-2.3-2.312l-2.15-.626a68.782 68.782 0 0 0-1.117-24.874 68.975 68.975 0 0 0-9.982-23.074c.551-.502 1.594-1.425 1.889-1.697.087-.955.012-1.958 1.001-3.017 2.096-1.967 4.737-3.598 7.924-5.567 1.512-.889 2.91-1.462 4.427-2.583.343-.255.813-.657 1.172-.946 2.556-2.039 3.145-5.553 1.309-7.855-1.834-2.3-5.39-2.517-7.945-.477-.363.288-.857.663-1.183.944-1.432 1.231-2.315 2.446-3.518 3.723-2.627 2.668-4.799 4.895-7.182 6.499-1.034.602-2.547.393-3.234.352l-2.026 1.446c-11.555-12.116-27.287-19.863-44.226-21.367-.048-.71-.11-1.992-.127-2.378-.692-.663-1.53-1.231-1.741-2.665-.231-2.864.155-5.946.603-9.664.247-1.738.66-3.181.729-5.066.016-.429-.009-1.051-.01-1.515-.002-3.264-2.385-5.916-5.329-5.916z"/><path fill="none" d="M85.142-61.364a4.667 4.667 0 0 1 2.199.468 4.656 4.656 0 0 1 2.106 2.003h.101l13.559 24.498a56.57 56.57 0 0 1-5.42 1.514c-10.368 2.355-20.704 1.642-30.064-1.547l13.524-24.454h.023a4.704 4.704 0 0 1 3.972-2.482zM61.909-72.645a4.697 4.697 0 0 1 4.507 3.653 4.65 4.65 0 0 1-.261 2.892l.08.102L55.58-40.247c-9.963-6.393-17.898-15.964-22.142-27.707l27.502-4.667.046.057a4.61 4.61 0 0 1 .923-.081zm46.593-.114c.365-.02.728.014 1.081.08l.046-.057 27.743 4.689c-4.061 11.407-11.831 21.29-22.211 27.903l-10.768-26.012.034-.046a4.701 4.701 0 0 1 2.277-6.09 4.652 4.652 0 0 1 1.798-.467zm-27.479-22.79h8.572l5.327 6.66-1.912 8.31-7.697 3.7-7.718-3.71-1.912-8.31 5.34-6.65zm51.238-20.15a55.569 55.569 0 0 1 6.864 16.768 55.43 55.43 0 0 1 1.162 17.862l-26.956-7.764-.023-.114a4.699 4.699 0 0 1-3.335-5.578 4.659 4.659 0 0 1 1.49-2.494l-.01-.057 20.808-18.623zm-94.041-.01l20.923 18.714-.023.114a4.69 4.69 0 0 1 .592 6.466 4.715 4.715 0 0 1-2.437 1.606l-.023.091-26.819 7.741a54.855 54.855 0 0 1 7.787-34.732zm53.776-25.82c12.122 1.492 23.331 6.98 31.921 15.391l-22.768 16.142-.08-.034a4.7 4.7 0 0 1-6.442-.864 4.652 4.652 0 0 1-1.025-2.722l-.023-.01-1.583-27.903zm-13.353 0l-1.583 27.947-.114.057a4.695 4.695 0 0 1-4.688 4.497 4.675 4.675 0 0 1-2.768-.898l-.044.023-22.916-16.246c7.042-6.926 16.051-12.044 26.431-14.401 1.898-.43 3.793-.75 5.682-.979zm6.67-41.323c-2.942.002-5.327 2.652-5.327 5.92 0 .051.011.099.013.149-.005.443-.027.978-.013 1.366.071 1.885.482 3.328.729 5.066.448 3.717.823 6.8.592 9.664-.226 1.081-1.021 2.069-1.731 2.755l-.127 2.254a69.515 69.515 0 0 0-9.63 1.48 68.533 68.533 0 0 0-34.811 19.888 90.731 90.731 0 0 1-1.925-1.366c-.952.128-1.912.422-3.164-.308-2.383-1.604-4.555-3.82-7.182-6.489-1.204-1.275-2.076-2.492-3.508-3.723-.324-.28-.82-.657-1.183-.945-1.119-.891-2.437-1.355-3.712-1.4-1.636-.057-3.214.584-4.246 1.878-1.834 2.3-1.247 5.817 1.309 7.855.027.021.053.037.08.057.351.285.781.649 1.105.887 1.517 1.121 2.905 1.695 4.416 2.585 3.186 1.968 5.827 3.6 7.922 5.568.818.872.963 2.408 1.071 3.074l1.708 1.524c-9.141 13.757-13.372 30.749-10.872 48.063l-2.23.649c-.589.76-1.42 1.955-2.29 2.31-2.741.863-5.825 1.181-9.55 1.571-1.75.146-3.259.059-5.112.411-.408.076-.977.224-1.423.329l-.046.013c-.023.005-.055.016-.078.021-3.141.76-5.159 3.646-4.509 6.489.649 2.846 3.718 4.575 6.877 3.893.023-.005.055-.005.08-.01.036-.009.066-.025.101-.034.441-.098.993-.204 1.379-.308 1.821-.489 3.141-1.206 4.781-1.834 3.524-1.263 6.444-2.32 9.288-2.732 1.188-.092 2.44.734 3.063 1.081l2.321-.398c5.345 16.568 16.544 29.961 30.726 38.363l-.968 2.323c.348.902.733 2.122.473 3.013-1.034 2.681-2.805 5.511-4.822 8.666-.977 1.458-1.976 2.59-2.856 4.258-.212.398-.48 1.012-.683 1.434-1.37 2.931-.367 6.305 2.264 7.57 2.647 1.275 5.932-.07 7.355-3.004.001-.005.009-.007.01-.012.002-.002-.002-.007 0-.011.203-.416.489-.964.66-1.355.756-1.729 1.007-3.211 1.537-4.883 1.411-3.541 2.184-7.257 4.125-9.571.532-.633 1.398-.878 2.296-1.119l1.206-2.186c12.364 4.746 26.202 6.019 40.027 2.881a69.517 69.517 0 0 0 9.141-2.755c.338.601.969 1.757 1.138 2.049.913.297 1.908.45 2.719 1.651 1.453 2.479 2.446 5.415 3.656 8.96.53 1.672.793 3.154 1.547 4.882.173.395.457.95.66 1.366 1.42 2.946 4.716 4.294 7.366 3.017 2.631-1.266 3.636-4.64 2.266-7.57-.204-.421-.484-1.035-.696-1.433-.88-1.668-1.88-2.789-2.856-4.246-2.017-3.156-3.691-5.778-4.724-8.46-.432-1.382.073-2.243.409-3.141-.201-.231-.633-1.537-.887-2.152 14.738-8.702 25.608-22.594 30.713-38.636.69.108 1.889.32 2.277.398.802-.528 1.539-1.219 2.983-1.105 2.844.411 5.765 1.468 9.291 2.732 1.638.628 2.958 1.357 4.781 1.845.384.103.935.199 1.377.295.036.009.067.027.103.034.023.005.057.007.078.012 3.159.679 6.227-1.05 6.877-3.894.649-2.844-1.368-5.731-4.507-6.489-.457-.103-1.105-.281-1.55-.365-1.853-.35-3.362-.263-5.11-.409-3.725-.391-6.811-.708-9.552-1.571-1.117-.434-1.912-1.764-2.3-2.312l-2.15-.626a68.782 68.782 0 0 0-1.117-24.874 68.975 68.975 0 0 0-9.982-23.074c.551-.502 1.594-1.425 1.889-1.697.087-.955.012-1.958 1.001-3.017 2.096-1.967 4.737-3.598 7.924-5.567 1.512-.889 2.91-1.462 4.427-2.583.343-.255.813-.657 1.172-.946 2.556-2.039 3.145-5.553 1.309-7.855-1.834-2.3-5.39-2.517-7.945-.477-.363.288-.857.663-1.183.944-1.432 1.231-2.315 2.446-3.518 3.723-2.627 2.668-4.799 4.895-7.182 6.499-1.034.602-2.547.393-3.234.352l-2.026 1.446c-11.555-12.116-27.287-19.863-44.226-21.367-.048-.71-.11-1.992-.127-2.378-.692-.663-1.53-1.231-1.741-2.665-.231-2.864.155-5.946.603-9.664.247-1.738.66-3.181.729-5.066.016-.429-.009-1.051-.01-1.515-.002-3.264-2.385-5.916-5.329-5.916z"/></svg>