<svg xmlns="http://www.w3.org/2000/svg" id="Camada_1" width="16" height="16" x="0" y="0" version="1.1" viewBox="0 0 24 24" xml:space="preserve"><path fill="#66BB6A" d="M10,4H4C2.9,4,2,4.9,2,6v12c0,1.1,0.9,2,2,2h16c1.1,0,2-0.9,2-2V8c0-1.1-0.9-2-2-2h-8L10,4z" class="st0"/><g><path fill="#C8E6C9" d="M22,20.5v0.6H10.5v-0.6l1.3-1.3v-3.8c0-2,1.3-3.7,3.2-4.3c0-0.1,0-0.1,0-0.2c0-0.7,0.6-1.3,1.3-1.3 s1.3,0.6,1.3,1.3c0,0.1,0,0.1,0,0.2c1.9,0.6,3.2,2.3,3.2,4.3v3.8L22,20.5 M17.5,21.8c0,0.7-0.6,1.3-1.3,1.3s-1.3-0.6-1.3-1.3" class="st1"/></g></svg>