<svg xmlns="http://www.w3.org/2000/svg" width="16" height="16" fill-rule="evenodd" stroke-linejoin="round" stroke-miterlimit="1.414" clip-rule="evenodd" version="1.1" viewBox="0 0 24 24" xml:space="preserve"><path fill="#42a5f5" fill-rule="nonzero" d="m10 4h-6c-1.11 0-2 0.89-2 2v12c0 1.097 0.903 2 2 2h16c1.097 0 2-0.903 2-2v-10c0-1.11-0.9-2-2-2h-8l-2-2z"/><path fill="#BBDEFB" d="m20 8l-8 5-8-5v-2l8 5 8-5m0-2h-16c-1.11 0-2 .89-2 2v12a2 2 0 0 0 2 2h16a2 2 0 0 0 2 -2v-12c0-1.11-.9-2-2-2z" transform="scale(0.6) translate(16 16)"/></svg>