<svg xmlns="http://www.w3.org/2000/svg" width="16" height="16" fill-rule="evenodd" stroke-linejoin="round" stroke-miterlimit="1.414" clip-rule="evenodd" version="1.1" viewBox="0 0 24 24"><path fill="#ef5350" fill-rule="nonzero" d="M10 4H4c-1.11 0-2 .89-2 2v12c0 1.097.903 2 2 2h16c1.097 0 2-.903 2-2V8a2 2 0 0 0-2-2h-8l-2-2z"/><path fill="#FFCDD2" d="m17.726 17.072h1.1836l-2.8937-7.3604h-1.0529l-2.8937 7.3604h1.1836l.63383-1.6983h3.1937zm-3.4085-2.8316 1.1719-3.1246 1.1719 3.1246zm8.5842.33499-4.5804 4.5801-2.0778-2.0835-.79959.79837l2.8832 2.8818 5.373-5.3785z" transform="scale(1.1)"/></svg>