<svg id="Layer_1" data-name="Layer 1" xmlns="http://www.w3.org/2000/svg" viewBox="0 0 482 512"><title>Artboard 2</title><path d="M235,1c4,.4,3.91.33,6,2-6.38,11.86-2,88.4-2,109V389c0,19.36,3.52,116.36-2,122L36,400,0,85Z" style="fill:#62c3a6;fill-rule:evenodd"/><path d="M240,2,481,84,441,397c-7.35,9.56-24.32,13.75-35,20L292,480c-13.52,7.92-39.26,28.92-54,29V144C238,118.84,232.44,16.07,240,2Z" style="fill:#25baa2;fill-rule:evenodd"/><path d="M0,0H482V512H0Z" style="fill:none;fill-rule:evenodd"/><path d="M226,143l-4,5c.37,6.39,1.48,6.44,4,10l18,5-17,55c-86.92,9.45-95.62,122.09-18,145,50.39,14.87,102.9-31.23,93-83-4.38-22.92-17.12-33.31-29-48l17-55c7.49,2.93,23,9.68,30,8,3.65-1.72,4.07-2.69,6-6l-3-8Z" style="fill:#c1e5de;fill-rule:evenodd"/><path d="M168,274l122,37v1C262.25,384.49,152.13,363.93,168,274Z" style="fill:#fff;fill-rule:evenodd"/></svg>