<svg id="Layer_1" data-name="Layer 1" xmlns="http://www.w3.org/2000/svg" viewBox="0 0 512 512"><title>Artboard 2</title><path d="M324,95l2,2L271,228h93L242,358c-11.7,14.48-40.09,51.69-56,59v-1l54-131v-1H148l8-8Z" fill="#fff" fill-rule="evenodd"/><path d="M184,96h3v73c-2.21,5.71-78.17,80.46-86,85,3.72,11,15.67,15.47,23,23,14.17,14.56,26.93,30.35,41,45,11.26,11.72,26.17,20.95,35,35-2.14,8.73-17.95,49.64-24,52-7.3-19.05-34.75-33.37-48-48-20.3-22.4-43.83-41.74-64-64-11.26-12.43-23.38-30.46-38-39v-4Z" fill="#4995d1" fill-rule="evenodd"/><path d="M333,103,486,255v3L368,374c-13.56,13.71-26.07,33.12-43,43V342l86-84c-3.3-9.53-12.71-13.43-19-20-15.08-15.75-29.14-33.08-45-48-11.54-10.86-27-20.84-35-35Z" fill="#4995d1" fill-rule="evenodd"/></svg>