<svg id="Layer_1" data-name="Layer 1" xmlns="http://www.w3.org/2000/svg" viewBox="0 0 256 256"><title>Artboard 2</title><path d="M127,3,248,72l-1,2L127,140,8,71V70Z" style="fill:#65a3d8;fill-rule:evenodd"/><path d="M62,102l13,8-1,2-13,7,2,1c6.29,6.57,65.45,40,67,39l66-39-2-3-11-7,10-7,55,30-2,3L127,202,8,134l1-2Z" style="fill:#e75b5b;fill-rule:evenodd"/><path d="M73,110l57,30,52-30c6.22,1.31,13.14,5.06,15,11l-68,41c-10-3.31-65.89-36.8-69-44Z" style="fill:#c95859;fill-rule:evenodd"/><path d="M202,159l46,26v1L128,253,10,184h2c8.73-8.6,29.88-21.52,43-24,5.76,3.16,15.33,6.65,18,13l-11,6,2,3,66,38,64-41v-1l-10-5C187,165.44,196.65,164.22,202,159Z" style="fill:#6fb449;fill-rule:evenodd"/><path d="M73,171c-2.51,3.82-6.88,5.87-11,8l2,3,66,38,64-41v-1l-11-7-55,31Z" style="fill:#699f4a;fill-rule:evenodd"/></svg>