<svg xmlns="http://www.w3.org/2000/svg" xmlns:xlink="http://www.w3.org/1999/xlink" width="16" height="16" x="0" y="0" preserveAspectRatio="xMidYMid meet" version="1.1" viewBox="-48 -48 608 608"><polygon id="file_type_ai.svg" fill="#91B859" points="342.066 440.933 342.066 411.313 356.798 426.164 356.798 283.013 327.116 283.013 327.116 211.847 380.442 265.606 380.442 122.455 259.879 122.455 138.408 0 138.408 52.333 29.391 52.333 57.889 81.062 0 81.062 141.804 224.644 29.751 224.644 142.24 338.044 0 338.044 171.714 511.229 171.714 143.151 258.972 143.151 294.903 179.374 214.792 179.37 214.792 322.521 253.988 322.521 299.947 368.852 210.774 368.852 210.77 512 412.562 512" class="i-color"/></svg>