<svg id="Layer_1" data-name="Layer 1" xmlns="http://www.w3.org/2000/svg" xmlns:xlink="http://www.w3.org/1999/xlink" viewBox="0 0 250 250"><defs><linearGradient id="linear-gradient" x1="175" y1="680.13" x2="175" y2="927.08" gradientTransform="translate(-50 -681)" gradientUnits="userSpaceOnUse"><stop offset="0" stop-color="#002e3b"/><stop offset="1" stop-color="#002639"/></linearGradient><linearGradient id="linear-gradient-2" y1="680.13" x2="175" y2="927.08" xlink:href="#linear-gradient"/><radialGradient id="radial-gradient" cx="63.3" cy="16.39" r="219.8" gradientTransform="matrix(1, 0, 0, -1, 0, 252)" gradientUnits="userSpaceOnUse"><stop offset="0" stop-color="#00bc85"/><stop offset="1" stop-color="#149d91"/></radialGradient><radialGradient id="radial-gradient-3" cx="186.83" cy="668.22" r="265.56" gradientTransform="translate(-50 -681)" xlink:href="#radial-gradient"/><radialGradient id="radial-gradient-5" cx="118.06" cy="648.76" r="507.59" gradientTransform="translate(-50 -681)" gradientUnits="userSpaceOnUse"><stop offset="0" stop-color="#004473"/><stop offset="1" stop-color="#00345f"/></radialGradient><linearGradient id="linear-gradient-3" x1="174.92" y1="681.39" x2="174.92" y2="927.09" xlink:href="#linear-gradient"/><linearGradient id="linear-gradient-4" x1="175.19" y1="681.39" x2="175.19" y2="927.09" xlink:href="#linear-gradient"/></defs><title>Artboard 1</title><polygon id="bottom" points="124.91 210.75 89.06 193.26 89.1 193.25 89.09 193.24 51 211.82 124.94 247.88 199 211.9 160.77 192.96 124.91 210.75" style="fill:url(#linear-gradient);stroke:url(#linear-gradient-2)"/><polygon id="right" points="51.09 211.94 51.09 174.78 87.75 156.9 125.45 175.5 51.09 211.94" style="fill:url(#radial-gradient);stroke:url(#radial-gradient)"/><polygon id="right-2" points="165.6 58.99 165.6 117.76 165.6 117.76 165.6 117.76 124.61 137.74 162.3 156.51 199 138.63 199 38.12 165.6 58.99" style="fill:url(#radial-gradient-3);stroke:url(#radial-gradient-3)"/><polygon id="left" points="199 211.91 199 211.91 199 174.75 84.5 117.72 84.5 58.96 51.1 38.09 51.1 138.6 199 211.91" style="fill:url(#radial-gradient-5);stroke:url(#radial-gradient-5)"/><polygon id="top" points="84.4 58.9 84.4 58.89 124.94 39.12 165.49 58.89 198.84 38.05 124.91 1.99 51 38.03 51 38.07 84.37 58.92 84.4 58.9" style="fill:url(#linear-gradient-3);stroke:url(#linear-gradient-4)"/></svg>