<svg xmlns="http://www.w3.org/2000/svg" width="16" height="16" version="1.1" viewBox="0 0 100 100"><g><polygon id="L" fill="#F06292" points="52 51.677 64.98 45 64.98 72.661 82.931 63.464 83 73.887 52.035 90" transform="translate(2 2)"/><polygon id="M" fill="#F06292" points="25.975 78.561 25.975 55.374 30.334 80.416 37.43 84.023 41.992 63.206 41.992 85.982 50 90 50 51.561 37.835 45.687 33.983 64.03 30.098 41.908 18 36 18 74.473" transform="translate(-2 2)"/><path id="U" fill="#F06292" d="M46.1038124,10 L36.9756967,18.1758452 C36.9756967,18.1758452 54.7855543,27.4495082 56.9490294,28.5454866 C59.1128071,29.6411584 62.1920292,31.748809 58.8631404,34.8684386 C55.5342516,37.9877616 51.872474,37.5662315 49.3758074,36.3016411 C46.8791408,35.0370507 28.4038082,25.5947756 28.4038082,25.5947756 L19,33.6878477 C19,33.6878477 37.1421412,43.0458167 40.1384437,44.6476312 C43.1344436,46.2497523 54.286221,50.211829 64.8554428,41.8655323 C75.4246647,33.5192356 73.9269673,30.4842186 73.9269673,29.8940764 C73.9269673,29.3039342 73.6773007,26.1846112 71.8464119,24.2455726 C70.0152204,22.306534 64.689301,19.5244351 62.4423011,18.3441507 C60.1953012,17.1638663 46.1038124,10 46.1038124,10 Z"/></g></svg>