<svg xmlns="http://www.w3.org/2000/svg" xmlns:xlink="http://www.w3.org/1999/xlink" width="16" height="16" fill="#4DB6AC" version="1.1" viewBox="0 0 24 24"><path d="M15,5H17V3H15M19,21H21V19H19M19,13H21V11H19M19,5H21V3H19M19,17H21V15H19M15,21H17V19H15M19,9H21V7H19M3,21H5V3H3M7,5H9V3H7M7,21H9V19H7M11,5H13V3H11M11,21H13V19H11V21Z"/><path d="M11,5H13V3H11M15,5H17V3H15M15,21H17V19H15M19,21H21V3H19M3,9H5V7H3M3,17H5V15H3M3,13H5V11H3M11,21H13V19H11M3,21H5V19H3M7,5H9V3H7M3,5H5V3H3M7,21H9V19H7V21Z"/></svg>